<svg xmlns="http://www.w3.org/2000/svg" width="74" height="73" viewBox="0 0 74 73">
  <g id="Group_108" data-name="Group 108" transform="translate(-155 -98)">
    <g id="Group_107" data-name="Group 107">
      <path id="Exclusion_1" data-name="Exclusion 1" d="M-3-2247h0v-13a22.845,22.845,0,0,0,16.256-6.744A22.845,22.845,0,0,0,20-2283a23.026,23.026,0,0,0-23-23v-14a36.268,36.268,0,0,1,14.207,2.868,36.378,36.378,0,0,1,11.6,7.823,36.381,36.381,0,0,1,7.822,11.6A36.273,36.273,0,0,1,33.5-2283.5a36.271,36.271,0,0,1-2.868,14.207,36.377,36.377,0,0,1-7.822,11.6,36.382,36.382,0,0,1-11.6,7.822A36.276,36.276,0,0,1-3-2247Z" transform="translate(158 2418)" fill="#efefef"/>
    </g>
    <g id="Group_106" data-name="Group 106">
      <rect id="Rectangle_62" data-name="Rectangle 62" width="37" height="14" rx="3" transform="translate(192 157)" fill="#efefef"/>
      <rect id="Rectangle_69" data-name="Rectangle 69" width="14" height="73" rx="3" transform="translate(192 98)" fill="#efefef"/>
    </g>
  </g>
</svg>
