<svg xmlns="http://www.w3.org/2000/svg" width="29" height="24.2" viewBox="0 0 29 24.2">
  <path id="iconmonstr-school-28-pink" d="M7.2,3.736H6V2H28.8V21.2H19.523L22.8,26H21.227l-3.283-4.8H15.6L12.317,26H10.8l3.278-4.8H10.8V20h9.6V18.8H24V20h3.6V3.2H7.2ZM9.89,24.548A1.5,1.5,0,0,1,8.383,26a1.536,1.536,0,0,1-1.5-1.387l-.487-4.841-.38,4.823A1.526,1.526,0,0,1,4.5,26a1.509,1.509,0,0,1-1.514-1.452L2.674,16.8l-.37.666a1.253,1.253,0,0,1-1.518.551A1.222,1.222,0,0,1,0,16.876a1.239,1.239,0,0,1,.047-.34l1.361-4.918a1.69,1.69,0,0,1,1.621-1.225H7.944A3.418,3.418,0,0,0,9.486,10c.868-.484,2.927-1.643,3.763-2.152a1.168,1.168,0,0,1,1.488.26,1.144,1.144,0,0,1-.089,1.556L10.991,13.15a2.418,2.418,0,0,0-.74,1.657c-.073,1.676-.36,9.74-.36,9.74ZM3.029,11.594a.487.487,0,0,0-.467.353c-.354,1.248-1.213,4.4-1.361,4.918l1.813-3.112a.41.41,0,0,1,.763.19L4.187,24.5c.012.334.6.344.628,0,0,0,.323-4.02.37-4.733a1.212,1.212,0,0,1,1.19-1.22,1.259,1.259,0,0,1,1.235,1.2c.043.419.392,4.1.462,4.726a.31.31,0,0,0,.62.026s.287-8.07.36-9.749a3.609,3.609,0,0,1,1.11-2.473L13.816,8.8c-.793.59-2.872,1.762-3.745,2.248a4.634,4.634,0,0,1-2.126.548H3.029ZM22.8,12.8h-6V11.6h6Zm2.4-2.4H16.8V9.2h8.4ZM6.328,4.407A2.779,2.779,0,1,0,9.107,7.186,2.78,2.78,0,0,0,6.328,4.407Zm0,1.2A1.579,1.579,0,1,1,4.75,7.186,1.58,1.58,0,0,1,6.328,5.607ZM25.2,8H16.8V6.8h8.4Z" transform="translate(0.1 -1.9)" fill="#f72585" stroke="#f72585" stroke-width="0.2" fill-rule="evenodd"/>
</svg>
