<svg xmlns="http://www.w3.org/2000/svg" width="20.948" height="24" viewBox="0 0 20.948 24">
  <path id="iconmonstr-dashboard-lined" d="M13.009,13.667a1.258,1.258,0,0,0-1.164-1.333H4.164A1.258,1.258,0,0,0,3,13.667v12A1.258,1.258,0,0,0,4.164,27h7.681a1.258,1.258,0,0,0,1.164-1.333Zm10.94,8a1.258,1.258,0,0,0-1.164-1.333H15.8a1.3,1.3,0,0,0-1.164,1.333v4A1.258,1.258,0,0,0,15.8,27h6.983a1.258,1.258,0,0,0,1.164-1.333Zm-1.746.667V25H16.384V22.333Zm-10.94-8V25H4.746V14.333Zm12.685-10A1.258,1.258,0,0,0,22.785,3H15.8a1.258,1.258,0,0,0-1.164,1.333v12.8A1.258,1.258,0,0,0,15.8,18.467h6.983a1.258,1.258,0,0,0,1.164-1.333ZM22.2,5V16.467H16.384V5Zm-9.194-.667A1.258,1.258,0,0,0,11.845,3H4.164A1.258,1.258,0,0,0,3,4.333v4.8a1.258,1.258,0,0,0,1.164,1.333h7.681a1.258,1.258,0,0,0,1.164-1.333ZM11.263,5V8.467H4.746V5Z" transform="translate(-3 -3)" fill="#fff"/>
</svg>
