<svg xmlns="http://www.w3.org/2000/svg" width="26.667" height="24" viewBox="0 0 26.667 24">
  <path id="iconmonstr-layer-multiple-alt-lined-pink" d="M2.525,20.012l12.12,6.812a1.312,1.312,0,0,0,1.3.007l12.207-6.817a1,1,0,1,0-.975-1.747s-9.4,5.277-11.385,6.36a.921.921,0,0,1-.963.008c-2.2-1.237-11.325-6.367-11.325-6.367a1,1,0,0,0-.98,1.744Zm0-4.151,12.12,6.812a1.312,1.312,0,0,0,1.3.007l12.207-6.817a1,1,0,1,0-.975-1.747s-9.4,5.277-11.385,6.36a.921.921,0,0,1-.963.008c-2.2-1.237-11.325-6.367-11.325-6.367a1,1,0,0,0-.98,1.744ZM16.22,3.255A1.984,1.984,0,0,0,15.3,3a1.867,1.867,0,0,0-.9.255L2.552,9.928A1.133,1.133,0,0,0,2,10.859a1.024,1.024,0,0,0,.552.885L14.4,18.419a1.74,1.74,0,0,0,.9.271,1.813,1.813,0,0,0,.919-.271l11.845-6.675a.986.986,0,0,0,0-1.816ZM5.015,10.836l10.295-5.8,10.293,5.8-10.293,5.8Z" transform="translate(-2 -3)" fill="#f72585"/>
</svg>
