<svg xmlns="http://www.w3.org/2000/svg" width="121.04" height="181.056" viewBox="0 0 121.04 181.056">
  <path id="iconmonstr-lock-30" d="M102.345,73.637V37.72a37.825,37.825,0,0,0-75.65,0V73.637A60.409,60.409,0,1,0,125.04,120.7,60.14,60.14,0,0,0,102.345,73.637ZM41.825,37.72a22.7,22.7,0,0,1,45.39,0V64.78a60.37,60.37,0,0,0-45.39,0V37.72Zm22.7,128.248A45.264,45.264,0,1,1,109.91,120.7,45.373,45.373,0,0,1,64.52,165.968ZM79.65,113.16a15.019,15.019,0,0,1-7.565,13v17.178H56.955V126.158a15.076,15.076,0,1,1,22.7-13Z" transform="translate(-4)" fill="#f72585"/>
</svg>
