<?xml version="1.0" encoding="UTF-8"?>
<!DOCTYPE svg PUBLIC "-//W3C//DTD SVG 1.1//EN" "http://www.w3.org/Graphics/SVG/1.1/DTD/svg11.dtd">
<svg xmlns="http://www.w3.org/2000/svg" version="1.1" width="512px" height="512px" style="shape-rendering:geometricPrecision; text-rendering:geometricPrecision; image-rendering:optimizeQuality; fill-rule:evenodd; clip-rule:evenodd" xmlns:xlink="http://www.w3.org/1999/xlink">
<g><path style="opacity:0.991" fill="#000000" d="M 511.5,342.5 C 511.5,361.5 511.5,380.5 511.5,399.5C 510.139,414.074 508.306,428.741 506,443.5C 503.722,460.678 497.722,476.345 488,490.5C 480.418,497.173 471.585,499.34 461.5,497C 459.122,496.489 456.788,495.822 454.5,495C 441.994,486.914 429.661,478.581 417.5,470C 394.832,458.167 371.165,448.834 346.5,442C 315.442,427.103 298.942,402.269 297,367.5C 295.153,351.505 295.153,335.505 297,319.5C 300.278,285.832 303.445,252.165 306.5,218.5C 287.81,218.25 270.81,212.916 255.5,202.5C 240.19,212.916 223.19,218.25 204.5,218.5C 208.86,260.598 212.526,302.765 215.5,345C 216.386,370.259 210.552,393.759 198,415.5C 189.003,427.081 177.837,435.914 164.5,442C 139.835,448.834 116.168,458.167 93.5,470C 81.3395,478.581 69.0061,486.914 56.5,495C 48.9978,497.365 41.3312,498.032 33.5,497C 27.4408,494.719 22.6075,490.886 19,485.5C 11.9367,472.31 7.27004,458.31 5,443.5C 2.69444,428.741 0.861111,414.074 -0.5,399.5C -0.5,380.5 -0.5,361.5 -0.5,342.5C 5.2172,269.965 22.7172,200.298 52,133.5C 60.8229,115.174 71.1563,97.8411 83,81.5C 93.177,68.6499 105.677,58.8166 120.5,52C 145.061,45.3739 164.894,52.2072 180,72.5C 189.887,88.8221 196.22,106.489 199,125.5C 201.164,140.146 202.997,154.813 204.5,169.5C 209.15,168.668 213.817,167.835 218.5,167C 224.767,165.066 228.601,160.9 230,154.5C 231.255,113.184 231.922,71.8507 232,30.5C 237.457,16.5184 247.624,11.0184 262.5,14C 270.667,16.8333 276.167,22.3333 279,30.5C 279.078,71.8507 279.745,113.184 281,154.5C 282.399,160.9 286.233,165.066 292.5,167C 297.183,167.835 301.85,168.668 306.5,169.5C 308.003,154.813 309.836,140.146 312,125.5C 314.78,106.489 321.113,88.8221 331,72.5C 346.106,52.2072 365.939,45.3739 390.5,52C 405.323,58.8166 417.823,68.6499 428,81.5C 451.492,114.485 469.158,150.485 481,189.5C 497.081,239.464 507.248,290.464 511.5,342.5 Z"/></g>
</svg>
