<?xml version="1.0" encoding="UTF-8"?>
<!DOCTYPE svg PUBLIC "-//W3C//DTD SVG 1.1//EN" "http://www.w3.org/Graphics/SVG/1.1/DTD/svg11.dtd">
<svg xmlns="http://www.w3.org/2000/svg" version="1.1" width="512px" height="512px" style="shape-rendering:geometricPrecision; text-rendering:geometricPrecision; image-rendering:optimizeQuality; fill-rule:evenodd; clip-rule:evenodd" xmlns:xlink="http://www.w3.org/1999/xlink">
<g><path style="opacity:0.978" fill="#000000" d="M 511.5,48.5 C 511.5,53.1667 511.5,57.8333 511.5,62.5C 509.018,68.4802 504.685,72.6469 498.5,75C 467.036,74.8794 445.703,89.3794 434.5,118.5C 466.51,135.866 477.677,162.199 468,197.5C 460.969,214.03 449.136,225.697 432.5,232.5C 431.975,286.862 431.141,341.195 430,395.5C 418.964,440.203 390.797,466.703 345.5,475C 234.5,475.667 123.5,475.667 12.5,475C 6.31536,472.647 1.98203,468.48 -0.5,462.5C -0.5,455.5 -0.5,448.5 -0.5,441.5C 7.43752,401.054 30.7709,373.554 69.5,359C 29.6619,326.828 6.32858,285.328 -0.5,234.5C -0.5,221.833 -0.5,209.167 -0.5,196.5C 7.97545,134.879 38.9754,88.3794 92.5,57C 136.179,34.1656 181.846,29.1656 229.5,42C 272.893,55.2656 307.059,80.7656 332,118.5C 337.114,126.393 341.447,134.726 345,143.5C 357.703,129.895 373.203,121.061 391.5,117C 401.44,76.3929 426.44,50.0596 466.5,38C 477.059,35.6876 487.725,35.0209 498.5,36C 504.685,38.3531 509.018,42.5198 511.5,48.5 Z M 178.5,75.5 C 235.641,78.1402 277.808,104.474 305,154.5C 328.191,208.143 322.191,258.143 287,304.5C 239.273,355.473 183.106,367.639 118.5,341C 68.5067,314.198 42.5067,272.365 40.5,215.5C 42.5067,158.635 68.5067,116.802 118.5,90C 137.646,81.0457 157.646,76.2124 178.5,75.5 Z M 410.5,155.5 C 425.922,157.427 432.422,166.094 430,181.5C 427.833,187.667 423.667,191.833 417.5,194C 405.676,193.32 397.176,198.154 392,208.5C 391.96,267.52 391.293,326.52 390,385.5C 382.554,415.612 363.388,432.112 332.5,435C 236.167,435.667 139.833,435.667 43.5,435C 54.2066,410.634 72.8733,397.634 99.5,396C 132.5,395.667 165.5,395.333 198.5,395C 264.725,385.997 312.891,351.83 343,292.5C 355.529,264.187 361.529,234.521 361,203.5C 366.029,175.3 382.529,159.3 410.5,155.5 Z"/></g>
<g><path style="opacity:0.989" fill="#000000" d="M 172.5,115.5 C 184.82,113.077 193.653,117.41 199,128.5C 199.5,150.831 199.667,173.164 199.5,195.5C 221.836,195.333 244.169,195.5 266.5,196C 277.752,201.343 281.919,210.176 279,222.5C 276.833,228.667 272.667,232.833 266.5,235C 235.167,235.667 203.833,235.667 172.5,235C 166.333,232.833 162.167,228.667 160,222.5C 159.333,191.167 159.333,159.833 160,128.5C 162.353,122.315 166.52,117.982 172.5,115.5 Z"/></g>
</svg>
